# xmcd CD database file
# Copyright (C) 1993-1998 Ti Kan
#
# Track frame offsets:
#	150
#	17080
#	44968
#	65200
#	95462
#	121028
#	143333
#	160002
#	188663
#	208729
#	222544
#	243521
#	265154
#	281868
#
# Disc length: 4014 seconds
#
# Revision: 1
# Processed by: cddbd v1.4b41PL1 Copyright (c) Steve Scherf et al.
# Submitted via: CDValet v3.31 - Copyright (c) 1997 Greg Leichner
#
DISCID=d60fac0e
DTITLE=Reggie Garrett and the SnakeOil Peddlers - Time Stands Sti
DTITLE=ll
DYEAR=1900
DGENRE=
TTITLE0=Pouring Rain
TTITLE1=Beltane
TTITLE2=Long Gone
TTITLE3=Sky is Gray
TTITLE4=Two Weeks Last Summer
TTITLE5=Lost Opportunities
TTITLE6=Better Than That
TTITLE7=Time Stands Still
TTITLE8=The Son of the Kool
TTITLE9=Function at the Junction
TTITLE10=Brooklyn Love Story
TTITLE11=Welcome to My World
TTITLE12=Rolling in Tonight
TTITLE13=Doc Lindy's Lullabye
EXTD=
EXTT0=
EXTT1=
EXTT2=
EXTT3=
EXTT4=
EXTT5=
EXTT6=
EXTT7=
EXTT8=
EXTT9=
EXTT10=
EXTT11=
EXTT12=
EXTT13=
PLAYORDER=
